<svg xmlns="http://www.w3.org/2000/svg" width="194" height="80.831" viewBox="0 0 194 80.831"><defs><style>.a{fill:#ababab;}.b{fill:#f05323;}.c{fill:#2c2a6c;}.d{fill:#03a0ce;}</style></defs><g transform="translate(-4 -4.885)"><g transform="translate(110.433 66.233)"><g transform="translate(0 5.127)"><path class="a" d="M55.9,37.3h1.23v4.307A3.505,3.505,0,0,1,59.8,40.171c2.051,0,3.691,1.641,3.691,4.307s-1.436,4.307-3.691,4.307a3.2,3.2,0,0,1-2.666-1.436v1.23H55.9Zm3.691,10.254c1.641,0,2.666-1.23,2.666-3.076S61.232,41.4,59.591,41.4a3.2,3.2,0,0,0-2.461,1.23v3.691A3.575,3.575,0,0,0,59.591,47.554Z" transform="translate(-55.9 -37.3)"/><path class="a" d="M61.741,49.159a1.125,1.125,0,0,0,1.23-.82l.615-1.23-3.486-8.2h1.436L64,45.467,66.662,38.7H68.1L64,48.544a2.666,2.666,0,0,1-3.486,1.436l.205-1.23A1.326,1.326,0,0,0,61.741,49.159Z" transform="translate(-51.487 -35.829)"/></g><g transform="translate(20.498)"><g transform="translate(59.686 1.641)"><path class="b" d="M95.615,36.01a.441.441,0,0,1-.41.41c-.205,0-.205-.205-.205-.41a.441.441,0,0,1,.41-.41A.716.716,0,0,0,95.615,36.01Zm-.615,0a.205.205,0,1,0,.205-.205Zm.205.205h0v-.41h.41l-.41.41h0c.205-.205.205,0,0,0Zm0-.205Z" transform="translate(-95 -35.6)"/></g><path class="b" d="M73.736,43.761a.385.385,0,0,0,.615,0l.41-.41.41-.41c.205-.205.205-.615,0-.615L73.941,41.3a2.456,2.456,0,0,1-.82.82l-.82.82Z" transform="translate(-59.166 -27.97)"/><path class="b" d="M84.844,43.862c0,3.281-2.256,4.717-4.922,4.717S75,46.938,75,43.862V37.71a.441.441,0,0,1,.41-.41h1.23v6.562a3.281,3.281,0,1,0,6.562,0V37.3h1.23a.441.441,0,0,1,.41.41v6.152Z" transform="translate(-56.329 -32.173)"/><path class="b" d="M91.264,43.047h0c0,.41-.205.615-.41.615H82.446a3.545,3.545,0,0,0,3.9,3.486,5.037,5.037,0,0,0,3.076-1.025.385.385,0,0,1,.615,0l.615.82a6.486,6.486,0,0,1-4.512,1.641c-3.281,0-5.537-2.256-5.537-5.742A5.441,5.441,0,0,1,86.137,37.1a5.675,5.675,0,0,1,5.127,5.947m-8.613-.82h6.973a3.493,3.493,0,0,0-6.973,0" transform="translate(-50.445 -32.383)"/><path class="b" d="M95.218,39.456a.753.753,0,0,1-.615.205,7.727,7.727,0,0,0-3.281-.82c-1.641,0-2.666.615-2.666,1.641,0,.82.82,1.436,2.256,1.641l1.23.205c2.256.205,3.691,1.23,3.691,3.076,0,2.051-1.846,3.486-4.922,3.486A7.382,7.382,0,0,1,86.4,47.454l.615-.82c.205-.205.41-.41.615-.205a7.239,7.239,0,0,0,3.486.82c1.846,0,3.076-.615,3.076-1.846,0-.82-.82-1.436-2.256-1.641l-1.23-.205c-2.461-.205-3.691-1.436-3.691-3.076,0-2.051,1.846-3.281,4.307-3.281a7.854,7.854,0,0,1,3.9,1.025.753.753,0,0,1,.205.615Z" transform="translate(-44.351 -32.278)"/><path class="b" d="M99.288,48.21A.753.753,0,0,0,98.673,48a3.308,3.308,0,0,1-1.846.615,2.212,2.212,0,0,1-2.256-2.461V40.417h2.871a.441.441,0,0,0,.41-.41V38.981H94.571V36.11a.441.441,0,0,0-.41-.41H92.93v3.281h-.615a.655.655,0,0,0-.615.615v.82h1.23v5.742c0,2.666,1.436,4.1,3.691,4.1A5.218,5.218,0,0,0,99.9,49.235Z" transform="translate(-38.782 -33.854)"/><path class="b" d="M82.516,42.8a8.417,8.417,0,0,0-8.613-8h-.82A8.246,8.246,0,0,0,65.9,43.208a8.417,8.417,0,0,0,8.613,8,7.166,7.166,0,0,0,4.512-1.641l-1.23-.82c-.205,0-.41-.205-.41,0a6.018,6.018,0,0,1-3.281.82,6.17,6.17,0,0,1-6.152-6.152,6.254,6.254,0,0,1,6.973-6.562A6.372,6.372,0,0,1,80.67,42.8a7.2,7.2,0,0,1-1.025,4.1c-.205.205,0,.41,0,.615l1.025.82A9.923,9.923,0,0,0,82.516,42.8" transform="translate(-65.896 -34.8)"/></g></g><g transform="translate(4 4.885)"><path class="c" d="M4,32.282H4A19.265,19.265,0,0,1,23.687,12.8c12.1,0,19.072,8.818,19.072,19.687v1.846H10.152c.82,8,7.178,12.715,14.355,12.715a17.423,17.423,0,0,0,12.92-5.332l3.9,3.076a22.428,22.428,0,0,1-16.816,6.973C13.228,51.764,4,43.766,4,32.282Zm32.607-2.051c-.615-6.767-4.922-12.715-13.125-12.715-7.178,0-12.51,5.332-13.33,12.715Z" transform="translate(-4 3.432)"/><path class="c" d="M25.4,13.724h6.152v9.638C34.628,17.21,40.575,12.7,48.368,12.9v5.947h-.41c-9.023,0-16.2,5.947-16.2,17.021V50.637H25.605V13.724Z" transform="translate(18.486 3.534)"/><path class="c" d="M38.6,13.1h6.562L55.826,43.246,66.9,13.1h5.127L83.1,43.246,93.97,13.1h6.357L85.972,50.834H80.435L69.361,21.3,58.287,50.834H52.955Z" transform="translate(32.356 3.748)"/><path class="d" d="M70.8,6.3h6.973v6.152H70.8Zm.41,13.945h6.152V57.979H71.21Z" transform="translate(66.189 -3.397)"/><path class="c" d="M78,13.31h6.152v6.973c2.666-4.1,6.973-7.383,14.15-7.383,9.844,0,15.791,6.152,15.791,14.97V51.044h-6.152V29.306c0-6.973-4.1-11.279-11.279-11.279-6.973,0-12.3,4.717-12.3,11.689V51.044H78.205V13.31Z" transform="translate(73.755 3.538)"/><path class="d" d="M75.5,10.453,115.489,16.2a1.57,1.57,0,0,0,1.846-1.641v-8a1.57,1.57,0,0,0-1.846-1.641L75.5,10.453Z" transform="translate(71.128 -4.885)"/><g transform="translate(187.848 16.232)"><path class="c" d="M95.6,15.876h0A3.154,3.154,0,0,1,98.676,12.8a3.02,3.02,0,0,1,3.076,3.076h0a3.076,3.076,0,0,1-6.152,0Zm5.947,0h0a2.9,2.9,0,0,0-2.666-2.871,2.641,2.641,0,0,0-2.666,2.871h0a2.666,2.666,0,0,0,5.332,0Zm-4.1-1.846h1.436c.82,0,1.23.41,1.23,1.025a.947.947,0,0,1-.615,1.025l.82,1.23H99.291l-.615-1.025h-.41v1.025h-.82V14.03Zm1.436,1.641c.41,0,.615-.205.615-.41s-.205-.41-.615-.41h-.615v.82Z" transform="translate(-95.6 -12.8)"/></g></g></g></svg>